%TF.GenerationSoftware,KiCad,Pcbnew,(5.1.9)-1*%
%TF.CreationDate,2021-02-16T20:32:59-07:00*%
%TF.ProjectId,keyboard_design_example,6b657962-6f61-4726-945f-64657369676e,rev?*%
%TF.SameCoordinates,Original*%
%TF.FileFunction,Legend,Top*%
%TF.FilePolarity,Positive*%
%FSLAX46Y46*%
G04 Gerber Fmt 4.6, Leading zero omitted, Abs format (unit mm)*
G04 Created by KiCad (PCBNEW (5.1.9)-1) date 2021-02-16 20:32:59*
%MOMM*%
%LPD*%
G01*
G04 APERTURE LIST*
%ADD10C,0.150000*%
G04 APERTURE END LIST*
D10*
%TO.C,SW1*%
X22443750Y-113725000D02*
X17243750Y-113725000D01*
X17243750Y-113725000D02*
X17243750Y-108525000D01*
X17243750Y-108525000D02*
X22443750Y-108525000D01*
X22443750Y-108525000D02*
X22443750Y-113725000D01*
X20843750Y-111125000D02*
G75*
G03*
X20843750Y-111125000I-1000000J0D01*
G01*
X18510416Y-107465761D02*
X18653273Y-107513380D01*
X18891369Y-107513380D01*
X18986607Y-107465761D01*
X19034226Y-107418142D01*
X19081845Y-107322904D01*
X19081845Y-107227666D01*
X19034226Y-107132428D01*
X18986607Y-107084809D01*
X18891369Y-107037190D01*
X18700892Y-106989571D01*
X18605654Y-106941952D01*
X18558035Y-106894333D01*
X18510416Y-106799095D01*
X18510416Y-106703857D01*
X18558035Y-106608619D01*
X18605654Y-106561000D01*
X18700892Y-106513380D01*
X18938988Y-106513380D01*
X19081845Y-106561000D01*
X19415178Y-106513380D02*
X19653273Y-107513380D01*
X19843750Y-106799095D01*
X20034226Y-107513380D01*
X20272321Y-106513380D01*
X21177083Y-107513380D02*
X20605654Y-107513380D01*
X20891369Y-107513380D02*
X20891369Y-106513380D01*
X20796130Y-106656238D01*
X20700892Y-106751476D01*
X20605654Y-106799095D01*
%TD*%
M02*
