M48
; DRILL file {KiCad (5.1.9)-1} date 02/16/21 15:16:14
; FORMAT={-:-/ absolute / metric / decimal}
; #@! TF.CreationDate,2021-02-16T15:16:14-07:00
; #@! TF.GenerationSoftware,Kicad,Pcbnew,(5.1.9)-1
; #@! TF.FileFunction,Plated,1,2,PTH
FMAT,2
METRIC
T1C0.500
T2C0.700
T3C1.470
%
G90
G05
T1
X15.875Y-136.525
X21.431Y-121.444
X25.4Y-121.444
X26.194Y-138.112
X32.544Y-114.3
X34.131Y-118.269
X52.387Y-127.794
T3
X18.415Y-146.685
X18.415Y-165.735
X18.415Y-184.785
X24.765Y-144.145
X24.765Y-163.195
X24.765Y-182.245
X37.465Y-146.685
X37.465Y-165.735
X37.465Y-184.785
X43.815Y-144.145
X43.815Y-163.195
X43.815Y-182.245
X56.515Y-146.685
X56.515Y-165.735
X56.515Y-184.785
X62.865Y-144.145
X62.865Y-163.195
X62.865Y-182.245
T2
G00X57.469Y-108.144
M15
G01X57.469Y-109.344
M16
G05
G00X57.469Y-112.644
M15
G01X57.469Y-113.844
M16
G05
G00X64.769Y-108.144
M15
G01X64.769Y-109.344
M16
G05
G00X64.769Y-112.644
M15
G01X64.769Y-113.844
M16
G05
T0
M30
