%TF.GenerationSoftware,KiCad,Pcbnew,(5.1.9)-1*%
%TF.CreationDate,2021-02-17T22:55:24-07:00*%
%TF.ProjectId,keyboard_design_example,6b657962-6f61-4726-945f-64657369676e,rev?*%
%TF.SameCoordinates,Original*%
%TF.FileFunction,Soldermask,Bot*%
%TF.FilePolarity,Negative*%
%FSLAX46Y46*%
G04 Gerber Fmt 4.6, Leading zero omitted, Abs format (unit mm)*
G04 Created by KiCad (PCBNEW (5.1.9)-1) date 2021-02-17 22:55:24*
%MOMM*%
%LPD*%
G01*
G04 APERTURE LIST*
%ADD10C,2.250000*%
%ADD11C,3.987800*%
%ADD12C,1.750000*%
%ADD13R,1.500000X0.550000*%
%ADD14R,0.550000X1.500000*%
%ADD15R,1.200000X0.900000*%
%ADD16R,1.200000X1.400000*%
%ADD17O,1.700000X2.700000*%
%ADD18R,0.500000X2.250000*%
G04 APERTURE END LIST*
D10*
%TO.C,MX4*%
X24765000Y-163195000D03*
D11*
X22225000Y-168275000D03*
D10*
X18415000Y-165735000D03*
D12*
X17145000Y-168275000D03*
X27305000Y-168275000D03*
%TD*%
D10*
%TO.C,MX1*%
X24765000Y-144145000D03*
D11*
X22225000Y-149225000D03*
D10*
X18415000Y-146685000D03*
D12*
X17145000Y-149225000D03*
X27305000Y-149225000D03*
%TD*%
D10*
%TO.C,MX6*%
X62865000Y-163195000D03*
D11*
X60325000Y-168275000D03*
D10*
X56515000Y-165735000D03*
D12*
X55245000Y-168275000D03*
X65405000Y-168275000D03*
%TD*%
D10*
%TO.C,MX9*%
X62865000Y-182245000D03*
D11*
X60325000Y-187325000D03*
D10*
X56515000Y-184785000D03*
D12*
X55245000Y-187325000D03*
X65405000Y-187325000D03*
%TD*%
D10*
%TO.C,MX2*%
X43815000Y-144145000D03*
D11*
X41275000Y-149225000D03*
D10*
X37465000Y-146685000D03*
D12*
X36195000Y-149225000D03*
X46355000Y-149225000D03*
%TD*%
D10*
%TO.C,MX5*%
X43815000Y-163195000D03*
D11*
X41275000Y-168275000D03*
D10*
X37465000Y-165735000D03*
D12*
X36195000Y-168275000D03*
X46355000Y-168275000D03*
%TD*%
D13*
%TO.C,U1*%
X18906250Y-125381250D03*
X18906250Y-126181250D03*
X18906250Y-126981250D03*
X18906250Y-127781250D03*
X18906250Y-128581250D03*
X18906250Y-129381250D03*
X18906250Y-130181250D03*
X18906250Y-130981250D03*
X18906250Y-131781250D03*
X18906250Y-132581250D03*
X18906250Y-133381250D03*
D14*
X20606250Y-135081250D03*
X21406250Y-135081250D03*
X22206250Y-135081250D03*
X23006250Y-135081250D03*
X23806250Y-135081250D03*
X24606250Y-135081250D03*
X25406250Y-135081250D03*
X26206250Y-135081250D03*
X27006250Y-135081250D03*
X27806250Y-135081250D03*
X28606250Y-135081250D03*
D13*
X30306250Y-133381250D03*
X30306250Y-132581250D03*
X30306250Y-131781250D03*
X30306250Y-130981250D03*
X30306250Y-130181250D03*
X30306250Y-129381250D03*
X30306250Y-128581250D03*
X30306250Y-127781250D03*
X30306250Y-126981250D03*
X30306250Y-126181250D03*
X30306250Y-125381250D03*
D14*
X28606250Y-123681250D03*
X27806250Y-123681250D03*
X27006250Y-123681250D03*
X26206250Y-123681250D03*
X25406250Y-123681250D03*
X24606250Y-123681250D03*
X23806250Y-123681250D03*
X23006250Y-123681250D03*
X22206250Y-123681250D03*
X21406250Y-123681250D03*
X20606250Y-123681250D03*
%TD*%
D10*
%TO.C,MX8*%
X43815000Y-182245000D03*
D11*
X41275000Y-187325000D03*
D10*
X37465000Y-184785000D03*
D12*
X36195000Y-187325000D03*
X46355000Y-187325000D03*
%TD*%
D10*
%TO.C,MX7*%
X24765000Y-182245000D03*
D11*
X22225000Y-187325000D03*
D10*
X18415000Y-184785000D03*
D12*
X17145000Y-187325000D03*
X27305000Y-187325000D03*
%TD*%
D10*
%TO.C,MX3*%
X62865000Y-144145000D03*
D11*
X60325000Y-149225000D03*
D10*
X56515000Y-146685000D03*
D12*
X55245000Y-149225000D03*
X65405000Y-149225000D03*
%TD*%
D15*
%TO.C,D9*%
X68262500Y-185675000D03*
X68262500Y-188975000D03*
%TD*%
%TO.C,D8*%
X49212500Y-185675000D03*
X49212500Y-188975000D03*
%TD*%
%TO.C,D7*%
X30162500Y-185675000D03*
X30162500Y-188975000D03*
%TD*%
%TO.C,D6*%
X68262500Y-166625000D03*
X68262500Y-169925000D03*
%TD*%
%TO.C,D3*%
X68262500Y-147575000D03*
X68262500Y-150875000D03*
%TD*%
D16*
%TO.C,Y1*%
X38156250Y-129687500D03*
X38156250Y-127487500D03*
X36456250Y-127487500D03*
X36456250Y-129687500D03*
%TD*%
D17*
%TO.C,USB1*%
X57468750Y-108743750D03*
X64768750Y-108743750D03*
X64768750Y-113243750D03*
X57468750Y-113243750D03*
D18*
X59518750Y-113243750D03*
X60318750Y-113243750D03*
X61118750Y-113243750D03*
X61918750Y-113243750D03*
X62718750Y-113243750D03*
%TD*%
%TO.C,R4*%
G36*
G01*
X19450000Y-138562502D02*
X19450000Y-137662498D01*
G75*
G02*
X19699998Y-137412500I249998J0D01*
G01*
X20225002Y-137412500D01*
G75*
G02*
X20475000Y-137662498I0J-249998D01*
G01*
X20475000Y-138562502D01*
G75*
G02*
X20225002Y-138812500I-249998J0D01*
G01*
X19699998Y-138812500D01*
G75*
G02*
X19450000Y-138562502I0J249998D01*
G01*
G37*
G36*
G01*
X17625000Y-138562502D02*
X17625000Y-137662498D01*
G75*
G02*
X17874998Y-137412500I249998J0D01*
G01*
X18400002Y-137412500D01*
G75*
G02*
X18650000Y-137662498I0J-249998D01*
G01*
X18650000Y-138562502D01*
G75*
G02*
X18400002Y-138812500I-249998J0D01*
G01*
X17874998Y-138812500D01*
G75*
G02*
X17625000Y-138562502I0J249998D01*
G01*
G37*
%TD*%
%TO.C,R3*%
G36*
G01*
X32937500Y-115437498D02*
X32937500Y-116337502D01*
G75*
G02*
X32687502Y-116587500I-249998J0D01*
G01*
X32162498Y-116587500D01*
G75*
G02*
X31912500Y-116337502I0J249998D01*
G01*
X31912500Y-115437498D01*
G75*
G02*
X32162498Y-115187500I249998J0D01*
G01*
X32687502Y-115187500D01*
G75*
G02*
X32937500Y-115437498I0J-249998D01*
G01*
G37*
G36*
G01*
X34762500Y-115437498D02*
X34762500Y-116337502D01*
G75*
G02*
X34512502Y-116587500I-249998J0D01*
G01*
X33987498Y-116587500D01*
G75*
G02*
X33737500Y-116337502I0J249998D01*
G01*
X33737500Y-115437498D01*
G75*
G02*
X33987498Y-115187500I249998J0D01*
G01*
X34512502Y-115187500D01*
G75*
G02*
X34762500Y-115437498I0J-249998D01*
G01*
G37*
%TD*%
%TO.C,R2*%
G36*
G01*
X62362502Y-117868750D02*
X61462498Y-117868750D01*
G75*
G02*
X61212500Y-117618752I0J249998D01*
G01*
X61212500Y-117093748D01*
G75*
G02*
X61462498Y-116843750I249998J0D01*
G01*
X62362502Y-116843750D01*
G75*
G02*
X62612500Y-117093748I0J-249998D01*
G01*
X62612500Y-117618752D01*
G75*
G02*
X62362502Y-117868750I-249998J0D01*
G01*
G37*
G36*
G01*
X62362502Y-119693750D02*
X61462498Y-119693750D01*
G75*
G02*
X61212500Y-119443752I0J249998D01*
G01*
X61212500Y-118918748D01*
G75*
G02*
X61462498Y-118668750I249998J0D01*
G01*
X62362502Y-118668750D01*
G75*
G02*
X62612500Y-118918748I0J-249998D01*
G01*
X62612500Y-119443752D01*
G75*
G02*
X62362502Y-119693750I-249998J0D01*
G01*
G37*
%TD*%
%TO.C,R1*%
G36*
G01*
X59981252Y-117868750D02*
X59081248Y-117868750D01*
G75*
G02*
X58831250Y-117618752I0J249998D01*
G01*
X58831250Y-117093748D01*
G75*
G02*
X59081248Y-116843750I249998J0D01*
G01*
X59981252Y-116843750D01*
G75*
G02*
X60231250Y-117093748I0J-249998D01*
G01*
X60231250Y-117618752D01*
G75*
G02*
X59981252Y-117868750I-249998J0D01*
G01*
G37*
G36*
G01*
X59981252Y-119693750D02*
X59081248Y-119693750D01*
G75*
G02*
X58831250Y-119443752I0J249998D01*
G01*
X58831250Y-118918748D01*
G75*
G02*
X59081248Y-118668750I249998J0D01*
G01*
X59981252Y-118668750D01*
G75*
G02*
X60231250Y-118918748I0J-249998D01*
G01*
X60231250Y-119443752D01*
G75*
G02*
X59981252Y-119693750I-249998J0D01*
G01*
G37*
%TD*%
%TO.C,F1*%
G36*
G01*
X45037500Y-112543750D02*
X45037500Y-111293750D01*
G75*
G02*
X45287500Y-111043750I250000J0D01*
G01*
X46037500Y-111043750D01*
G75*
G02*
X46287500Y-111293750I0J-250000D01*
G01*
X46287500Y-112543750D01*
G75*
G02*
X46037500Y-112793750I-250000J0D01*
G01*
X45287500Y-112793750D01*
G75*
G02*
X45037500Y-112543750I0J250000D01*
G01*
G37*
G36*
G01*
X42237500Y-112543750D02*
X42237500Y-111293750D01*
G75*
G02*
X42487500Y-111043750I250000J0D01*
G01*
X43237500Y-111043750D01*
G75*
G02*
X43487500Y-111293750I0J-250000D01*
G01*
X43487500Y-112543750D01*
G75*
G02*
X43237500Y-112793750I-250000J0D01*
G01*
X42487500Y-112793750D01*
G75*
G02*
X42237500Y-112543750I0J250000D01*
G01*
G37*
%TD*%
D15*
%TO.C,D5*%
X49212500Y-166625000D03*
X49212500Y-169925000D03*
%TD*%
%TO.C,D4*%
X30162500Y-166625000D03*
X30162500Y-169925000D03*
%TD*%
%TO.C,D2*%
X49212500Y-147575000D03*
X49212500Y-150875000D03*
%TD*%
%TO.C,D1*%
X30162500Y-147575000D03*
X30162500Y-150875000D03*
%TD*%
%TO.C,C7*%
G36*
G01*
X28256250Y-118612500D02*
X27306250Y-118612500D01*
G75*
G02*
X27056250Y-118362500I0J250000D01*
G01*
X27056250Y-117862500D01*
G75*
G02*
X27306250Y-117612500I250000J0D01*
G01*
X28256250Y-117612500D01*
G75*
G02*
X28506250Y-117862500I0J-250000D01*
G01*
X28506250Y-118362500D01*
G75*
G02*
X28256250Y-118612500I-250000J0D01*
G01*
G37*
G36*
G01*
X28256250Y-120512500D02*
X27306250Y-120512500D01*
G75*
G02*
X27056250Y-120262500I0J250000D01*
G01*
X27056250Y-119762500D01*
G75*
G02*
X27306250Y-119512500I250000J0D01*
G01*
X28256250Y-119512500D01*
G75*
G02*
X28506250Y-119762500I0J-250000D01*
G01*
X28506250Y-120262500D01*
G75*
G02*
X28256250Y-120512500I-250000J0D01*
G01*
G37*
%TD*%
%TO.C,C6*%
G36*
G01*
X36856250Y-123350000D02*
X36856250Y-124300000D01*
G75*
G02*
X36606250Y-124550000I-250000J0D01*
G01*
X36106250Y-124550000D01*
G75*
G02*
X35856250Y-124300000I0J250000D01*
G01*
X35856250Y-123350000D01*
G75*
G02*
X36106250Y-123100000I250000J0D01*
G01*
X36606250Y-123100000D01*
G75*
G02*
X36856250Y-123350000I0J-250000D01*
G01*
G37*
G36*
G01*
X38756250Y-123350000D02*
X38756250Y-124300000D01*
G75*
G02*
X38506250Y-124550000I-250000J0D01*
G01*
X38006250Y-124550000D01*
G75*
G02*
X37756250Y-124300000I0J250000D01*
G01*
X37756250Y-123350000D01*
G75*
G02*
X38006250Y-123100000I250000J0D01*
G01*
X38506250Y-123100000D01*
G75*
G02*
X38756250Y-123350000I0J-250000D01*
G01*
G37*
%TD*%
%TO.C,C5*%
G36*
G01*
X37756250Y-133825000D02*
X37756250Y-132875000D01*
G75*
G02*
X38006250Y-132625000I250000J0D01*
G01*
X38506250Y-132625000D01*
G75*
G02*
X38756250Y-132875000I0J-250000D01*
G01*
X38756250Y-133825000D01*
G75*
G02*
X38506250Y-134075000I-250000J0D01*
G01*
X38006250Y-134075000D01*
G75*
G02*
X37756250Y-133825000I0J250000D01*
G01*
G37*
G36*
G01*
X35856250Y-133825000D02*
X35856250Y-132875000D01*
G75*
G02*
X36106250Y-132625000I250000J0D01*
G01*
X36606250Y-132625000D01*
G75*
G02*
X36856250Y-132875000I0J-250000D01*
G01*
X36856250Y-133825000D01*
G75*
G02*
X36606250Y-134075000I-250000J0D01*
G01*
X36106250Y-134075000D01*
G75*
G02*
X35856250Y-133825000I0J250000D01*
G01*
G37*
%TD*%
%TO.C,C4*%
G36*
G01*
X19393750Y-118587500D02*
X19393750Y-119537500D01*
G75*
G02*
X19143750Y-119787500I-250000J0D01*
G01*
X18643750Y-119787500D01*
G75*
G02*
X18393750Y-119537500I0J250000D01*
G01*
X18393750Y-118587500D01*
G75*
G02*
X18643750Y-118337500I250000J0D01*
G01*
X19143750Y-118337500D01*
G75*
G02*
X19393750Y-118587500I0J-250000D01*
G01*
G37*
G36*
G01*
X21293750Y-118587500D02*
X21293750Y-119537500D01*
G75*
G02*
X21043750Y-119787500I-250000J0D01*
G01*
X20543750Y-119787500D01*
G75*
G02*
X20293750Y-119537500I0J250000D01*
G01*
X20293750Y-118587500D01*
G75*
G02*
X20543750Y-118337500I250000J0D01*
G01*
X21043750Y-118337500D01*
G75*
G02*
X21293750Y-118587500I0J-250000D01*
G01*
G37*
%TD*%
%TO.C,C3*%
G36*
G01*
X33787500Y-121125000D02*
X33787500Y-120175000D01*
G75*
G02*
X34037500Y-119925000I250000J0D01*
G01*
X34537500Y-119925000D01*
G75*
G02*
X34787500Y-120175000I0J-250000D01*
G01*
X34787500Y-121125000D01*
G75*
G02*
X34537500Y-121375000I-250000J0D01*
G01*
X34037500Y-121375000D01*
G75*
G02*
X33787500Y-121125000I0J250000D01*
G01*
G37*
G36*
G01*
X31887500Y-121125000D02*
X31887500Y-120175000D01*
G75*
G02*
X32137500Y-119925000I250000J0D01*
G01*
X32637500Y-119925000D01*
G75*
G02*
X32887500Y-120175000I0J-250000D01*
G01*
X32887500Y-121125000D01*
G75*
G02*
X32637500Y-121375000I-250000J0D01*
G01*
X32137500Y-121375000D01*
G75*
G02*
X31887500Y-121125000I0J250000D01*
G01*
G37*
%TD*%
%TO.C,C2*%
G36*
G01*
X29025000Y-138587500D02*
X29025000Y-137637500D01*
G75*
G02*
X29275000Y-137387500I250000J0D01*
G01*
X29775000Y-137387500D01*
G75*
G02*
X30025000Y-137637500I0J-250000D01*
G01*
X30025000Y-138587500D01*
G75*
G02*
X29775000Y-138837500I-250000J0D01*
G01*
X29275000Y-138837500D01*
G75*
G02*
X29025000Y-138587500I0J250000D01*
G01*
G37*
G36*
G01*
X27125000Y-138587500D02*
X27125000Y-137637500D01*
G75*
G02*
X27375000Y-137387500I250000J0D01*
G01*
X27875000Y-137387500D01*
G75*
G02*
X28125000Y-137637500I0J-250000D01*
G01*
X28125000Y-138587500D01*
G75*
G02*
X27875000Y-138837500I-250000J0D01*
G01*
X27375000Y-138837500D01*
G75*
G02*
X27125000Y-138587500I0J250000D01*
G01*
G37*
%TD*%
%TO.C,C1*%
G36*
G01*
X16350000Y-132900000D02*
X15400000Y-132900000D01*
G75*
G02*
X15150000Y-132650000I0J250000D01*
G01*
X15150000Y-132150000D01*
G75*
G02*
X15400000Y-131900000I250000J0D01*
G01*
X16350000Y-131900000D01*
G75*
G02*
X16600000Y-132150000I0J-250000D01*
G01*
X16600000Y-132650000D01*
G75*
G02*
X16350000Y-132900000I-250000J0D01*
G01*
G37*
G36*
G01*
X16350000Y-134800000D02*
X15400000Y-134800000D01*
G75*
G02*
X15150000Y-134550000I0J250000D01*
G01*
X15150000Y-134050000D01*
G75*
G02*
X15400000Y-133800000I250000J0D01*
G01*
X16350000Y-133800000D01*
G75*
G02*
X16600000Y-134050000I0J-250000D01*
G01*
X16600000Y-134550000D01*
G75*
G02*
X16350000Y-134800000I-250000J0D01*
G01*
G37*
%TD*%
M02*
