M48
; DRILL file {KiCad (5.1.9)-1} date 02/16/21 15:16:14
; FORMAT={-:-/ absolute / metric / decimal}
; #@! TF.CreationDate,2021-02-16T15:16:14-07:00
; #@! TF.GenerationSoftware,Kicad,Pcbnew,(5.1.9)-1
; #@! TF.FileFunction,NonPlated,1,2,NPTH
FMAT,2
METRIC
T1C1.750
T2C3.988
%
G90
G05
T1
X17.145Y-149.225
X17.145Y-168.275
X17.145Y-187.325
X27.305Y-149.225
X27.305Y-168.275
X27.305Y-187.325
X36.195Y-149.225
X36.195Y-168.275
X36.195Y-187.325
X46.355Y-149.225
X46.355Y-168.275
X46.355Y-187.325
X55.245Y-149.225
X55.245Y-168.275
X55.245Y-187.325
X65.405Y-149.225
X65.405Y-168.275
X65.405Y-187.325
T2
X22.225Y-149.225
X22.225Y-168.275
X22.225Y-187.325
X41.275Y-149.225
X41.275Y-168.275
X41.275Y-187.325
X60.325Y-149.225
X60.325Y-168.275
X60.325Y-187.325
T0
M30
