%TF.GenerationSoftware,KiCad,Pcbnew,(5.1.9)-1*%
%TF.CreationDate,2021-02-16T15:15:00-07:00*%
%TF.ProjectId,keyboard_design_example,6b657962-6f61-4726-945f-64657369676e,rev?*%
%TF.SameCoordinates,Original*%
%TF.FileFunction,Copper,L2,Bot*%
%TF.FilePolarity,Positive*%
%FSLAX46Y46*%
G04 Gerber Fmt 4.6, Leading zero omitted, Abs format (unit mm)*
G04 Created by KiCad (PCBNEW (5.1.9)-1) date 2021-02-16 15:15:00*
%MOMM*%
%LPD*%
G01*
G04 APERTURE LIST*
%TA.AperFunction,ComponentPad*%
%ADD10C,2.250000*%
%TD*%
%TA.AperFunction,SMDPad,CuDef*%
%ADD11R,1.500000X0.550000*%
%TD*%
%TA.AperFunction,SMDPad,CuDef*%
%ADD12R,0.550000X1.500000*%
%TD*%
%TA.AperFunction,SMDPad,CuDef*%
%ADD13R,1.200000X0.900000*%
%TD*%
%TA.AperFunction,SMDPad,CuDef*%
%ADD14R,1.200000X1.400000*%
%TD*%
%TA.AperFunction,ComponentPad*%
%ADD15O,1.700000X2.700000*%
%TD*%
%TA.AperFunction,SMDPad,CuDef*%
%ADD16R,0.500000X2.250000*%
%TD*%
%TA.AperFunction,SMDPad,CuDef*%
%ADD17R,1.800000X1.100000*%
%TD*%
%TA.AperFunction,ViaPad*%
%ADD18C,1.000000*%
%TD*%
%TA.AperFunction,Conductor*%
%ADD19C,0.254000*%
%TD*%
%TA.AperFunction,Conductor*%
%ADD20C,0.350000*%
%TD*%
%TA.AperFunction,Conductor*%
%ADD21C,0.381000*%
%TD*%
%TA.AperFunction,Conductor*%
%ADD22C,0.200000*%
%TD*%
G04 APERTURE END LIST*
D10*
%TO.P,MX4,2*%
%TO.N,Net-(D4-Pad2)*%
X24765000Y-163195000D03*
%TO.P,MX4,1*%
%TO.N,COL0*%
X18415000Y-165735000D03*
%TD*%
%TO.P,MX1,2*%
%TO.N,Net-(D1-Pad2)*%
X24765000Y-144145000D03*
%TO.P,MX1,1*%
%TO.N,COL0*%
X18415000Y-146685000D03*
%TD*%
%TO.P,MX6,2*%
%TO.N,Net-(D6-Pad2)*%
X62865000Y-163195000D03*
%TO.P,MX6,1*%
%TO.N,COL2*%
X56515000Y-165735000D03*
%TD*%
%TO.P,MX9,2*%
%TO.N,Net-(D9-Pad2)*%
X62865000Y-182245000D03*
%TO.P,MX9,1*%
%TO.N,COL2*%
X56515000Y-184785000D03*
%TD*%
%TO.P,MX2,2*%
%TO.N,Net-(D2-Pad2)*%
X43815000Y-144145000D03*
%TO.P,MX2,1*%
%TO.N,COL1*%
X37465000Y-146685000D03*
%TD*%
%TO.P,MX5,2*%
%TO.N,Net-(D5-Pad2)*%
X43815000Y-163195000D03*
%TO.P,MX5,1*%
%TO.N,COL1*%
X37465000Y-165735000D03*
%TD*%
D11*
%TO.P,U1,44*%
%TO.N,+5V*%
X18906250Y-125381250D03*
%TO.P,U1,43*%
%TO.N,GND*%
X18906250Y-126181250D03*
%TO.P,U1,42*%
%TO.N,Net-(U1-Pad42)*%
X18906250Y-126981250D03*
%TO.P,U1,41*%
%TO.N,Net-(U1-Pad41)*%
X18906250Y-127781250D03*
%TO.P,U1,40*%
%TO.N,Net-(U1-Pad40)*%
X18906250Y-128581250D03*
%TO.P,U1,39*%
%TO.N,Net-(U1-Pad39)*%
X18906250Y-129381250D03*
%TO.P,U1,38*%
%TO.N,Net-(U1-Pad38)*%
X18906250Y-130181250D03*
%TO.P,U1,37*%
%TO.N,Net-(U1-Pad37)*%
X18906250Y-130981250D03*
%TO.P,U1,36*%
%TO.N,Net-(U1-Pad36)*%
X18906250Y-131781250D03*
%TO.P,U1,35*%
%TO.N,GND*%
X18906250Y-132581250D03*
%TO.P,U1,34*%
%TO.N,+5V*%
X18906250Y-133381250D03*
D12*
%TO.P,U1,33*%
%TO.N,Net-(R4-Pad2)*%
X20606250Y-135081250D03*
%TO.P,U1,32*%
%TO.N,COL0*%
X21406250Y-135081250D03*
%TO.P,U1,31*%
%TO.N,Net-(U1-Pad31)*%
X22206250Y-135081250D03*
%TO.P,U1,30*%
%TO.N,Net-(U1-Pad30)*%
X23006250Y-135081250D03*
%TO.P,U1,29*%
%TO.N,ROW2*%
X23806250Y-135081250D03*
%TO.P,U1,28*%
%TO.N,ROW1*%
X24606250Y-135081250D03*
%TO.P,U1,27*%
%TO.N,ROW0*%
X25406250Y-135081250D03*
%TO.P,U1,26*%
%TO.N,COL1*%
X26206250Y-135081250D03*
%TO.P,U1,25*%
%TO.N,COL2*%
X27006250Y-135081250D03*
%TO.P,U1,24*%
%TO.N,+5V*%
X27806250Y-135081250D03*
%TO.P,U1,23*%
%TO.N,GND*%
X28606250Y-135081250D03*
D11*
%TO.P,U1,22*%
%TO.N,Net-(U1-Pad22)*%
X30306250Y-133381250D03*
%TO.P,U1,21*%
%TO.N,Net-(U1-Pad21)*%
X30306250Y-132581250D03*
%TO.P,U1,20*%
%TO.N,Net-(U1-Pad20)*%
X30306250Y-131781250D03*
%TO.P,U1,19*%
%TO.N,Net-(U1-Pad19)*%
X30306250Y-130981250D03*
%TO.P,U1,18*%
%TO.N,Net-(U1-Pad18)*%
X30306250Y-130181250D03*
%TO.P,U1,17*%
%TO.N,Net-(C5-Pad1)*%
X30306250Y-129381250D03*
%TO.P,U1,16*%
%TO.N,Net-(C6-Pad1)*%
X30306250Y-128581250D03*
%TO.P,U1,15*%
%TO.N,GND*%
X30306250Y-127781250D03*
%TO.P,U1,14*%
%TO.N,+5V*%
X30306250Y-126981250D03*
%TO.P,U1,13*%
%TO.N,Net-(R3-Pad2)*%
X30306250Y-126181250D03*
%TO.P,U1,12*%
%TO.N,Net-(U1-Pad12)*%
X30306250Y-125381250D03*
D12*
%TO.P,U1,11*%
%TO.N,Net-(U1-Pad11)*%
X28606250Y-123681250D03*
%TO.P,U1,10*%
%TO.N,Net-(U1-Pad10)*%
X27806250Y-123681250D03*
%TO.P,U1,9*%
%TO.N,Net-(U1-Pad9)*%
X27006250Y-123681250D03*
%TO.P,U1,8*%
%TO.N,Net-(U1-Pad8)*%
X26206250Y-123681250D03*
%TO.P,U1,7*%
%TO.N,+5V*%
X25406250Y-123681250D03*
%TO.P,U1,6*%
%TO.N,Net-(C7-Pad1)*%
X24606250Y-123681250D03*
%TO.P,U1,5*%
%TO.N,GND*%
X23806250Y-123681250D03*
%TO.P,U1,4*%
%TO.N,Net-(R2-Pad1)*%
X23006250Y-123681250D03*
%TO.P,U1,3*%
%TO.N,Net-(R1-Pad1)*%
X22206250Y-123681250D03*
%TO.P,U1,2*%
%TO.N,+5V*%
X21406250Y-123681250D03*
%TO.P,U1,1*%
%TO.N,Net-(U1-Pad1)*%
X20606250Y-123681250D03*
%TD*%
D10*
%TO.P,MX8,2*%
%TO.N,Net-(D8-Pad2)*%
X43815000Y-182245000D03*
%TO.P,MX8,1*%
%TO.N,COL1*%
X37465000Y-184785000D03*
%TD*%
%TO.P,MX7,2*%
%TO.N,Net-(D7-Pad2)*%
X24765000Y-182245000D03*
%TO.P,MX7,1*%
%TO.N,COL0*%
X18415000Y-184785000D03*
%TD*%
%TO.P,MX3,2*%
%TO.N,Net-(D3-Pad2)*%
X62865000Y-144145000D03*
%TO.P,MX3,1*%
%TO.N,COL2*%
X56515000Y-146685000D03*
%TD*%
D13*
%TO.P,D9,2*%
%TO.N,Net-(D9-Pad2)*%
X68262500Y-185675000D03*
%TO.P,D9,1*%
%TO.N,ROW2*%
X68262500Y-188975000D03*
%TD*%
%TO.P,D8,2*%
%TO.N,Net-(D8-Pad2)*%
X49212500Y-185675000D03*
%TO.P,D8,1*%
%TO.N,ROW2*%
X49212500Y-188975000D03*
%TD*%
%TO.P,D7,2*%
%TO.N,Net-(D7-Pad2)*%
X30162500Y-185675000D03*
%TO.P,D7,1*%
%TO.N,ROW2*%
X30162500Y-188975000D03*
%TD*%
%TO.P,D6,2*%
%TO.N,Net-(D6-Pad2)*%
X68262500Y-166625000D03*
%TO.P,D6,1*%
%TO.N,ROW1*%
X68262500Y-169925000D03*
%TD*%
%TO.P,D3,2*%
%TO.N,Net-(D3-Pad2)*%
X68262500Y-147575000D03*
%TO.P,D3,1*%
%TO.N,ROW0*%
X68262500Y-150875000D03*
%TD*%
D14*
%TO.P,Y1,4*%
%TO.N,GND*%
X36456250Y-127487500D03*
%TO.P,Y1,3*%
%TO.N,Net-(C6-Pad1)*%
X36456250Y-129687500D03*
%TO.P,Y1,2*%
%TO.N,GND*%
X38156250Y-129687500D03*
%TO.P,Y1,1*%
%TO.N,Net-(C5-Pad1)*%
X38156250Y-127487500D03*
%TD*%
D15*
%TO.P,USB1,6*%
%TO.N,Net-(USB1-Pad6)*%
X57468750Y-108743750D03*
X64768750Y-108743750D03*
X64768750Y-113243750D03*
X57468750Y-113243750D03*
D16*
%TO.P,USB1,5*%
%TO.N,VCC*%
X59518750Y-113243750D03*
%TO.P,USB1,4*%
%TO.N,D-*%
X60318750Y-113243750D03*
%TO.P,USB1,3*%
%TO.N,D+*%
X61118750Y-113243750D03*
%TO.P,USB1,2*%
%TO.N,Net-(USB1-Pad2)*%
X61918750Y-113243750D03*
%TO.P,USB1,1*%
%TO.N,GND*%
X62718750Y-113243750D03*
%TD*%
D17*
%TO.P,SW1,4*%
%TO.N,N/C*%
X49931250Y-132025000D03*
%TO.P,SW1,3*%
X43731250Y-128325000D03*
%TO.P,SW1,2*%
%TO.N,Net-(R3-Pad2)*%
X49931250Y-128325000D03*
%TO.P,SW1,1*%
%TO.N,GND*%
X43731250Y-132025000D03*
%TD*%
%TO.P,R4,2*%
%TO.N,Net-(R4-Pad2)*%
%TA.AperFunction,SMDPad,CuDef*%
G36*
G01*
X19450000Y-138562501D02*
X19450000Y-137662499D01*
G75*
G02*
X19699999Y-137412500I249999J0D01*
G01*
X20225001Y-137412500D01*
G75*
G02*
X20475000Y-137662499I0J-249999D01*
G01*
X20475000Y-138562501D01*
G75*
G02*
X20225001Y-138812500I-249999J0D01*
G01*
X19699999Y-138812500D01*
G75*
G02*
X19450000Y-138562501I0J249999D01*
G01*
G37*
%TD.AperFunction*%
%TO.P,R4,1*%
%TO.N,GND*%
%TA.AperFunction,SMDPad,CuDef*%
G36*
G01*
X17625000Y-138562501D02*
X17625000Y-137662499D01*
G75*
G02*
X17874999Y-137412500I249999J0D01*
G01*
X18400001Y-137412500D01*
G75*
G02*
X18650000Y-137662499I0J-249999D01*
G01*
X18650000Y-138562501D01*
G75*
G02*
X18400001Y-138812500I-249999J0D01*
G01*
X17874999Y-138812500D01*
G75*
G02*
X17625000Y-138562501I0J249999D01*
G01*
G37*
%TD.AperFunction*%
%TD*%
%TO.P,R3,2*%
%TO.N,Net-(R3-Pad2)*%
%TA.AperFunction,SMDPad,CuDef*%
G36*
G01*
X32937500Y-115437499D02*
X32937500Y-116337501D01*
G75*
G02*
X32687501Y-116587500I-249999J0D01*
G01*
X32162499Y-116587500D01*
G75*
G02*
X31912500Y-116337501I0J249999D01*
G01*
X31912500Y-115437499D01*
G75*
G02*
X32162499Y-115187500I249999J0D01*
G01*
X32687501Y-115187500D01*
G75*
G02*
X32937500Y-115437499I0J-249999D01*
G01*
G37*
%TD.AperFunction*%
%TO.P,R3,1*%
%TO.N,+5V*%
%TA.AperFunction,SMDPad,CuDef*%
G36*
G01*
X34762500Y-115437499D02*
X34762500Y-116337501D01*
G75*
G02*
X34512501Y-116587500I-249999J0D01*
G01*
X33987499Y-116587500D01*
G75*
G02*
X33737500Y-116337501I0J249999D01*
G01*
X33737500Y-115437499D01*
G75*
G02*
X33987499Y-115187500I249999J0D01*
G01*
X34512501Y-115187500D01*
G75*
G02*
X34762500Y-115437499I0J-249999D01*
G01*
G37*
%TD.AperFunction*%
%TD*%
%TO.P,R2,2*%
%TO.N,D+*%
%TA.AperFunction,SMDPad,CuDef*%
G36*
G01*
X62362501Y-117868750D02*
X61462499Y-117868750D01*
G75*
G02*
X61212500Y-117618751I0J249999D01*
G01*
X61212500Y-117093749D01*
G75*
G02*
X61462499Y-116843750I249999J0D01*
G01*
X62362501Y-116843750D01*
G75*
G02*
X62612500Y-117093749I0J-249999D01*
G01*
X62612500Y-117618751D01*
G75*
G02*
X62362501Y-117868750I-249999J0D01*
G01*
G37*
%TD.AperFunction*%
%TO.P,R2,1*%
%TO.N,Net-(R2-Pad1)*%
%TA.AperFunction,SMDPad,CuDef*%
G36*
G01*
X62362501Y-119693750D02*
X61462499Y-119693750D01*
G75*
G02*
X61212500Y-119443751I0J249999D01*
G01*
X61212500Y-118918749D01*
G75*
G02*
X61462499Y-118668750I249999J0D01*
G01*
X62362501Y-118668750D01*
G75*
G02*
X62612500Y-118918749I0J-249999D01*
G01*
X62612500Y-119443751D01*
G75*
G02*
X62362501Y-119693750I-249999J0D01*
G01*
G37*
%TD.AperFunction*%
%TD*%
%TO.P,R1,2*%
%TO.N,D-*%
%TA.AperFunction,SMDPad,CuDef*%
G36*
G01*
X59981251Y-117868750D02*
X59081249Y-117868750D01*
G75*
G02*
X58831250Y-117618751I0J249999D01*
G01*
X58831250Y-117093749D01*
G75*
G02*
X59081249Y-116843750I249999J0D01*
G01*
X59981251Y-116843750D01*
G75*
G02*
X60231250Y-117093749I0J-249999D01*
G01*
X60231250Y-117618751D01*
G75*
G02*
X59981251Y-117868750I-249999J0D01*
G01*
G37*
%TD.AperFunction*%
%TO.P,R1,1*%
%TO.N,Net-(R1-Pad1)*%
%TA.AperFunction,SMDPad,CuDef*%
G36*
G01*
X59981251Y-119693750D02*
X59081249Y-119693750D01*
G75*
G02*
X58831250Y-119443751I0J249999D01*
G01*
X58831250Y-118918749D01*
G75*
G02*
X59081249Y-118668750I249999J0D01*
G01*
X59981251Y-118668750D01*
G75*
G02*
X60231250Y-118918749I0J-249999D01*
G01*
X60231250Y-119443751D01*
G75*
G02*
X59981251Y-119693750I-249999J0D01*
G01*
G37*
%TD.AperFunction*%
%TD*%
%TO.P,F1,2*%
%TO.N,VCC*%
%TA.AperFunction,SMDPad,CuDef*%
G36*
G01*
X45037500Y-112543750D02*
X45037500Y-111293750D01*
G75*
G02*
X45287500Y-111043750I250000J0D01*
G01*
X46037500Y-111043750D01*
G75*
G02*
X46287500Y-111293750I0J-250000D01*
G01*
X46287500Y-112543750D01*
G75*
G02*
X46037500Y-112793750I-250000J0D01*
G01*
X45287500Y-112793750D01*
G75*
G02*
X45037500Y-112543750I0J250000D01*
G01*
G37*
%TD.AperFunction*%
%TO.P,F1,1*%
%TO.N,+5V*%
%TA.AperFunction,SMDPad,CuDef*%
G36*
G01*
X42237500Y-112543750D02*
X42237500Y-111293750D01*
G75*
G02*
X42487500Y-111043750I250000J0D01*
G01*
X43237500Y-111043750D01*
G75*
G02*
X43487500Y-111293750I0J-250000D01*
G01*
X43487500Y-112543750D01*
G75*
G02*
X43237500Y-112793750I-250000J0D01*
G01*
X42487500Y-112793750D01*
G75*
G02*
X42237500Y-112543750I0J250000D01*
G01*
G37*
%TD.AperFunction*%
%TD*%
D13*
%TO.P,D5,2*%
%TO.N,Net-(D5-Pad2)*%
X49212500Y-166625000D03*
%TO.P,D5,1*%
%TO.N,ROW1*%
X49212500Y-169925000D03*
%TD*%
%TO.P,D4,2*%
%TO.N,Net-(D4-Pad2)*%
X30162500Y-166625000D03*
%TO.P,D4,1*%
%TO.N,ROW1*%
X30162500Y-169925000D03*
%TD*%
%TO.P,D2,2*%
%TO.N,Net-(D2-Pad2)*%
X49212500Y-147575000D03*
%TO.P,D2,1*%
%TO.N,ROW0*%
X49212500Y-150875000D03*
%TD*%
%TO.P,D1,2*%
%TO.N,Net-(D1-Pad2)*%
X30162500Y-147575000D03*
%TO.P,D1,1*%
%TO.N,ROW0*%
X30162500Y-150875000D03*
%TD*%
%TO.P,C7,2*%
%TO.N,GND*%
%TA.AperFunction,SMDPad,CuDef*%
G36*
G01*
X28256250Y-118612500D02*
X27306250Y-118612500D01*
G75*
G02*
X27056250Y-118362500I0J250000D01*
G01*
X27056250Y-117862500D01*
G75*
G02*
X27306250Y-117612500I250000J0D01*
G01*
X28256250Y-117612500D01*
G75*
G02*
X28506250Y-117862500I0J-250000D01*
G01*
X28506250Y-118362500D01*
G75*
G02*
X28256250Y-118612500I-250000J0D01*
G01*
G37*
%TD.AperFunction*%
%TO.P,C7,1*%
%TO.N,Net-(C7-Pad1)*%
%TA.AperFunction,SMDPad,CuDef*%
G36*
G01*
X28256250Y-120512500D02*
X27306250Y-120512500D01*
G75*
G02*
X27056250Y-120262500I0J250000D01*
G01*
X27056250Y-119762500D01*
G75*
G02*
X27306250Y-119512500I250000J0D01*
G01*
X28256250Y-119512500D01*
G75*
G02*
X28506250Y-119762500I0J-250000D01*
G01*
X28506250Y-120262500D01*
G75*
G02*
X28256250Y-120512500I-250000J0D01*
G01*
G37*
%TD.AperFunction*%
%TD*%
%TO.P,C6,2*%
%TO.N,GND*%
%TA.AperFunction,SMDPad,CuDef*%
G36*
G01*
X37756250Y-133825000D02*
X37756250Y-132875000D01*
G75*
G02*
X38006250Y-132625000I250000J0D01*
G01*
X38506250Y-132625000D01*
G75*
G02*
X38756250Y-132875000I0J-250000D01*
G01*
X38756250Y-133825000D01*
G75*
G02*
X38506250Y-134075000I-250000J0D01*
G01*
X38006250Y-134075000D01*
G75*
G02*
X37756250Y-133825000I0J250000D01*
G01*
G37*
%TD.AperFunction*%
%TO.P,C6,1*%
%TO.N,Net-(C6-Pad1)*%
%TA.AperFunction,SMDPad,CuDef*%
G36*
G01*
X35856250Y-133825000D02*
X35856250Y-132875000D01*
G75*
G02*
X36106250Y-132625000I250000J0D01*
G01*
X36606250Y-132625000D01*
G75*
G02*
X36856250Y-132875000I0J-250000D01*
G01*
X36856250Y-133825000D01*
G75*
G02*
X36606250Y-134075000I-250000J0D01*
G01*
X36106250Y-134075000D01*
G75*
G02*
X35856250Y-133825000I0J250000D01*
G01*
G37*
%TD.AperFunction*%
%TD*%
%TO.P,C5,2*%
%TO.N,GND*%
%TA.AperFunction,SMDPad,CuDef*%
G36*
G01*
X36856250Y-123350000D02*
X36856250Y-124300000D01*
G75*
G02*
X36606250Y-124550000I-250000J0D01*
G01*
X36106250Y-124550000D01*
G75*
G02*
X35856250Y-124300000I0J250000D01*
G01*
X35856250Y-123350000D01*
G75*
G02*
X36106250Y-123100000I250000J0D01*
G01*
X36606250Y-123100000D01*
G75*
G02*
X36856250Y-123350000I0J-250000D01*
G01*
G37*
%TD.AperFunction*%
%TO.P,C5,1*%
%TO.N,Net-(C5-Pad1)*%
%TA.AperFunction,SMDPad,CuDef*%
G36*
G01*
X38756250Y-123350000D02*
X38756250Y-124300000D01*
G75*
G02*
X38506250Y-124550000I-250000J0D01*
G01*
X38006250Y-124550000D01*
G75*
G02*
X37756250Y-124300000I0J250000D01*
G01*
X37756250Y-123350000D01*
G75*
G02*
X38006250Y-123100000I250000J0D01*
G01*
X38506250Y-123100000D01*
G75*
G02*
X38756250Y-123350000I0J-250000D01*
G01*
G37*
%TD.AperFunction*%
%TD*%
%TO.P,C4,2*%
%TO.N,GND*%
%TA.AperFunction,SMDPad,CuDef*%
G36*
G01*
X19393750Y-118587500D02*
X19393750Y-119537500D01*
G75*
G02*
X19143750Y-119787500I-250000J0D01*
G01*
X18643750Y-119787500D01*
G75*
G02*
X18393750Y-119537500I0J250000D01*
G01*
X18393750Y-118587500D01*
G75*
G02*
X18643750Y-118337500I250000J0D01*
G01*
X19143750Y-118337500D01*
G75*
G02*
X19393750Y-118587500I0J-250000D01*
G01*
G37*
%TD.AperFunction*%
%TO.P,C4,1*%
%TO.N,+5V*%
%TA.AperFunction,SMDPad,CuDef*%
G36*
G01*
X21293750Y-118587500D02*
X21293750Y-119537500D01*
G75*
G02*
X21043750Y-119787500I-250000J0D01*
G01*
X20543750Y-119787500D01*
G75*
G02*
X20293750Y-119537500I0J250000D01*
G01*
X20293750Y-118587500D01*
G75*
G02*
X20543750Y-118337500I250000J0D01*
G01*
X21043750Y-118337500D01*
G75*
G02*
X21293750Y-118587500I0J-250000D01*
G01*
G37*
%TD.AperFunction*%
%TD*%
%TO.P,C3,2*%
%TO.N,GND*%
%TA.AperFunction,SMDPad,CuDef*%
G36*
G01*
X33787500Y-121125000D02*
X33787500Y-120175000D01*
G75*
G02*
X34037500Y-119925000I250000J0D01*
G01*
X34537500Y-119925000D01*
G75*
G02*
X34787500Y-120175000I0J-250000D01*
G01*
X34787500Y-121125000D01*
G75*
G02*
X34537500Y-121375000I-250000J0D01*
G01*
X34037500Y-121375000D01*
G75*
G02*
X33787500Y-121125000I0J250000D01*
G01*
G37*
%TD.AperFunction*%
%TO.P,C3,1*%
%TO.N,+5V*%
%TA.AperFunction,SMDPad,CuDef*%
G36*
G01*
X31887500Y-121125000D02*
X31887500Y-120175000D01*
G75*
G02*
X32137500Y-119925000I250000J0D01*
G01*
X32637500Y-119925000D01*
G75*
G02*
X32887500Y-120175000I0J-250000D01*
G01*
X32887500Y-121125000D01*
G75*
G02*
X32637500Y-121375000I-250000J0D01*
G01*
X32137500Y-121375000D01*
G75*
G02*
X31887500Y-121125000I0J250000D01*
G01*
G37*
%TD.AperFunction*%
%TD*%
%TO.P,C2,2*%
%TO.N,GND*%
%TA.AperFunction,SMDPad,CuDef*%
G36*
G01*
X29025000Y-138587500D02*
X29025000Y-137637500D01*
G75*
G02*
X29275000Y-137387500I250000J0D01*
G01*
X29775000Y-137387500D01*
G75*
G02*
X30025000Y-137637500I0J-250000D01*
G01*
X30025000Y-138587500D01*
G75*
G02*
X29775000Y-138837500I-250000J0D01*
G01*
X29275000Y-138837500D01*
G75*
G02*
X29025000Y-138587500I0J250000D01*
G01*
G37*
%TD.AperFunction*%
%TO.P,C2,1*%
%TO.N,+5V*%
%TA.AperFunction,SMDPad,CuDef*%
G36*
G01*
X27125000Y-138587500D02*
X27125000Y-137637500D01*
G75*
G02*
X27375000Y-137387500I250000J0D01*
G01*
X27875000Y-137387500D01*
G75*
G02*
X28125000Y-137637500I0J-250000D01*
G01*
X28125000Y-138587500D01*
G75*
G02*
X27875000Y-138837500I-250000J0D01*
G01*
X27375000Y-138837500D01*
G75*
G02*
X27125000Y-138587500I0J250000D01*
G01*
G37*
%TD.AperFunction*%
%TD*%
%TO.P,C1,2*%
%TO.N,GND*%
%TA.AperFunction,SMDPad,CuDef*%
G36*
G01*
X16350000Y-132900000D02*
X15400000Y-132900000D01*
G75*
G02*
X15150000Y-132650000I0J250000D01*
G01*
X15150000Y-132150000D01*
G75*
G02*
X15400000Y-131900000I250000J0D01*
G01*
X16350000Y-131900000D01*
G75*
G02*
X16600000Y-132150000I0J-250000D01*
G01*
X16600000Y-132650000D01*
G75*
G02*
X16350000Y-132900000I-250000J0D01*
G01*
G37*
%TD.AperFunction*%
%TO.P,C1,1*%
%TO.N,+5V*%
%TA.AperFunction,SMDPad,CuDef*%
G36*
G01*
X16350000Y-134800000D02*
X15400000Y-134800000D01*
G75*
G02*
X15150000Y-134550000I0J250000D01*
G01*
X15150000Y-134050000D01*
G75*
G02*
X15400000Y-133800000I250000J0D01*
G01*
X16350000Y-133800000D01*
G75*
G02*
X16600000Y-134050000I0J-250000D01*
G01*
X16600000Y-134550000D01*
G75*
G02*
X16350000Y-134800000I-250000J0D01*
G01*
G37*
%TD.AperFunction*%
%TD*%
D18*
%TO.N,+5V*%
X34131250Y-118268750D03*
X15875000Y-136525000D03*
X26193750Y-138112500D03*
X25400000Y-121443750D03*
X21431250Y-121443750D03*
%TO.N,Net-(R3-Pad2)*%
X52387500Y-127793750D03*
X32543750Y-114300000D03*
%TD*%
D19*
%TO.N,*%
X47625000Y-142117562D02*
X47652010Y-142144572D01*
X47625000Y-142081250D02*
X47625000Y-142117562D01*
D20*
%TO.N,+5V*%
X20793750Y-120806250D02*
X21431250Y-121443750D01*
X20793750Y-119062500D02*
X20793750Y-120806250D01*
X21431250Y-123656250D02*
X21406250Y-123681250D01*
X21431250Y-121443750D02*
X21431250Y-123656250D01*
X18287500Y-125381250D02*
X18906250Y-125381250D01*
X18256250Y-125412500D02*
X18287500Y-125381250D01*
X17462500Y-124618750D02*
X18256250Y-125412500D01*
X17462500Y-122237500D02*
X17462500Y-124618750D01*
X18256250Y-121443750D02*
X17462500Y-122237500D01*
X21431250Y-121443750D02*
X18256250Y-121443750D01*
X32387500Y-117750000D02*
X32387500Y-120650000D01*
X31386252Y-126981250D02*
X30306250Y-126981250D01*
X32387500Y-125980002D02*
X31386252Y-126981250D01*
X32387500Y-120650000D02*
X32387500Y-125980002D01*
X25400000Y-123675000D02*
X25406250Y-123681250D01*
X25400000Y-121443750D02*
X25400000Y-123675000D01*
X30127009Y-109729241D02*
X20793750Y-119062500D01*
X40672991Y-109729241D02*
X30127009Y-109729241D01*
X42862500Y-111918750D02*
X40672991Y-109729241D01*
X27806250Y-137931250D02*
X27806250Y-135081250D01*
X27625000Y-138112500D02*
X27806250Y-137931250D01*
X15875000Y-134300000D02*
X16825000Y-133350000D01*
X18875000Y-133350000D02*
X18906250Y-133381250D01*
X16825000Y-133350000D02*
X18875000Y-133350000D01*
X15875000Y-136525000D02*
X15875000Y-134300000D01*
X27625000Y-138112500D02*
X26193750Y-138112500D01*
X32603125Y-117534375D02*
X33396875Y-117534375D01*
X34250000Y-115887500D02*
X32603125Y-117534375D01*
X33396875Y-117534375D02*
X34131250Y-118268750D01*
X32603125Y-117534375D02*
X32387500Y-117750000D01*
D19*
%TO.N,Net-(C6-Pad1)*%
X36150000Y-129381250D02*
X30306250Y-129381250D01*
X36456250Y-129687500D02*
X36150000Y-129381250D01*
X36356250Y-129787500D02*
X36456250Y-129687500D01*
X36356250Y-133350000D02*
X36356250Y-129787500D01*
%TO.N,Net-(C5-Pad1)*%
X38156250Y-123925000D02*
X38256250Y-123825000D01*
X38156250Y-127487500D02*
X38156250Y-123925000D01*
X32473290Y-128581250D02*
X30306250Y-128581250D01*
X37983249Y-126360499D02*
X34694041Y-126360499D01*
X38156250Y-126533500D02*
X37983249Y-126360499D01*
X34694041Y-126360499D02*
X32473290Y-128581250D01*
X38156250Y-127487500D02*
X38156250Y-126533500D01*
%TO.N,Net-(C7-Pad1)*%
X24472999Y-122554397D02*
X24606250Y-122687648D01*
X24472999Y-120998789D02*
X24472999Y-122554397D01*
X25459288Y-120012500D02*
X24472999Y-120998789D01*
X27781250Y-120012500D02*
X25459288Y-120012500D01*
X24606250Y-122687648D02*
X24606250Y-123825000D01*
X24606250Y-123825000D02*
X24606250Y-123681250D01*
%TO.N,Net-(D1-Pad2)*%
X26732500Y-144145000D02*
X30162500Y-147575000D01*
X24765000Y-144145000D02*
X26732500Y-144145000D01*
%TO.N,ROW1*%
X48491599Y-170645901D02*
X49212500Y-169925000D01*
X30179401Y-170645901D02*
X48491599Y-170645901D01*
X30162500Y-170629000D02*
X30179401Y-170645901D01*
X30162500Y-169925000D02*
X30162500Y-170629000D01*
X67541599Y-170645901D02*
X68262500Y-169925000D01*
X49933401Y-170645901D02*
X67541599Y-170645901D01*
X49212500Y-169925000D02*
X49933401Y-170645901D01*
%TO.N,Net-(D4-Pad2)*%
X26732500Y-163195000D02*
X30162500Y-166625000D01*
%TO.N,D-*%
X60318750Y-116568750D02*
X59531250Y-117356250D01*
X60318750Y-113243750D02*
X60318750Y-116568750D01*
%TO.N,Net-(R1-Pad1)*%
X22206250Y-122677250D02*
X22206250Y-123681250D01*
X22225000Y-119856250D02*
X22225000Y-120865538D01*
X22358251Y-120998789D02*
X22358251Y-122525249D01*
X22225000Y-120865538D02*
X22358251Y-120998789D01*
X30956250Y-111125000D02*
X22225000Y-119856250D01*
X38100000Y-111125000D02*
X30956250Y-111125000D01*
X46156250Y-119181250D02*
X38100000Y-111125000D01*
X22358251Y-122525249D02*
X22206250Y-122677250D01*
%TO.N,D+*%
X61118750Y-116562500D02*
X61912500Y-117356250D01*
X61118750Y-113243750D02*
X61118750Y-116562500D01*
%TO.N,Net-(R2-Pad1)*%
X23006250Y-122465538D02*
X23006250Y-123681250D01*
X23006250Y-120662500D02*
X23006250Y-123681250D01*
X38016749Y-112629249D02*
X31039501Y-112629249D01*
X31039501Y-112629249D02*
X23006250Y-120662500D01*
X45458260Y-120070760D02*
X38016749Y-112629249D01*
X61912500Y-119181250D02*
X61022990Y-120070760D01*
%TO.N,Net-(R3-Pad2)*%
X51856250Y-128325000D02*
X52387500Y-127793750D01*
X49931250Y-128325000D02*
X51856250Y-128325000D01*
X32543750Y-115768750D02*
X32425000Y-115887500D01*
X32425000Y-115887500D02*
X32425000Y-116006250D01*
X32425000Y-116006250D02*
X30162500Y-118268750D01*
X30162500Y-118268750D02*
X30162500Y-122237500D01*
X30162500Y-122237500D02*
X31750000Y-123825000D01*
X31209852Y-126181250D02*
X30306250Y-126181250D01*
X31750000Y-125641102D02*
X31209852Y-126181250D01*
X31750000Y-123825000D02*
X31750000Y-125641102D01*
X32425000Y-114418750D02*
X32543750Y-114300000D01*
X32425000Y-115887500D02*
X32425000Y-114418750D01*
D21*
%TO.N,GND*%
X36456250Y-123925000D02*
X36356250Y-123825000D01*
X38156250Y-133250000D02*
X38256250Y-133350000D01*
D22*
X38156250Y-129367498D02*
X38156250Y-129687500D01*
X36456250Y-127667498D02*
X38156250Y-129367498D01*
X36456250Y-127487500D02*
X36456250Y-127667498D01*
D21*
X36356250Y-123187500D02*
X36356250Y-123825000D01*
X36356250Y-123825000D02*
X34053125Y-126128125D01*
X37306250Y-122237500D02*
X36356250Y-123187500D01*
X38893750Y-122237500D02*
X37306250Y-122237500D01*
X39687500Y-123031250D02*
X38893750Y-122237500D01*
X39381250Y-129687500D02*
X39687500Y-129381250D01*
X38156250Y-129687500D02*
X39381250Y-129687500D01*
X38156250Y-129687500D02*
X38156250Y-133250000D01*
X39687500Y-129381250D02*
X39687500Y-123031250D01*
D20*
X17826248Y-126181250D02*
X18906250Y-126181250D01*
X16668750Y-120650000D02*
X16668750Y-125023752D01*
X16668750Y-125023752D02*
X17826248Y-126181250D01*
X17043749Y-120275001D02*
X16668750Y-120650000D01*
X17681249Y-120275001D02*
X17043749Y-120275001D01*
X18893750Y-119062500D02*
X17681249Y-120275001D01*
X31386252Y-127781250D02*
X30306250Y-127781250D01*
X34287500Y-120650000D02*
X34287500Y-124775000D01*
X34287500Y-124775000D02*
X34287500Y-124880002D01*
D21*
X34053125Y-126128125D02*
X32400000Y-127781250D01*
D20*
X34287500Y-124775000D02*
X34287500Y-125256250D01*
X31762500Y-127781250D02*
X31737500Y-127781250D01*
X34287500Y-125256250D02*
X31762500Y-127781250D01*
D21*
X31737500Y-127781250D02*
X30306250Y-127781250D01*
X32400000Y-127781250D02*
X31737500Y-127781250D01*
D20*
X29525000Y-138112500D02*
X28575000Y-137162500D01*
X28575000Y-135112500D02*
X28606250Y-135081250D01*
X28575000Y-137162500D02*
X28575000Y-135112500D01*
X14674990Y-133600010D02*
X15875000Y-132400000D01*
X14674990Y-136767992D02*
X14674990Y-133600010D01*
X16019498Y-138112500D02*
X14674990Y-136767992D01*
X18137500Y-138112500D02*
X16019498Y-138112500D01*
X16056250Y-132581250D02*
X18906250Y-132581250D01*
X15875000Y-132400000D02*
X16056250Y-132581250D01*
X43731250Y-132025000D02*
X43731250Y-132481250D01*
X42862500Y-133350000D02*
X38256250Y-133350000D01*
X43731250Y-132481250D02*
X42862500Y-133350000D01*
X34310270Y-120672770D02*
X34287500Y-120650000D01*
X27781250Y-116738870D02*
X27781250Y-118112500D01*
X31288861Y-113231259D02*
X27781250Y-116738870D01*
X37767389Y-113231259D02*
X31288861Y-113231259D01*
X45208899Y-120672769D02*
X37767389Y-113231259D01*
X63087510Y-115087510D02*
X63087510Y-119744062D01*
X62718750Y-114718750D02*
X63087510Y-115087510D01*
X62718750Y-113243750D02*
X62718750Y-114718750D01*
D19*
%TO.N,Net-(D5-Pad2)*%
X45782500Y-163195000D02*
X49212500Y-166625000D01*
X43815000Y-163195000D02*
X45782500Y-163195000D01*
%TO.N,ROW0*%
X48491599Y-151595901D02*
X49212500Y-150875000D01*
X30883401Y-151595901D02*
X48491599Y-151595901D01*
X30162500Y-150875000D02*
X30883401Y-151595901D01*
X67541599Y-151595901D02*
X68262500Y-150875000D01*
X49933401Y-151595901D02*
X67541599Y-151595901D01*
X49212500Y-150875000D02*
X49933401Y-151595901D01*
X30100000Y-150812500D02*
X30162500Y-150875000D01*
X26052999Y-149877999D02*
X27050000Y-150875000D01*
X26052999Y-149084249D02*
X26052999Y-149877999D01*
X22225000Y-145256250D02*
X26052999Y-149084249D01*
X27050000Y-150875000D02*
X30162500Y-150875000D01*
X22225000Y-143668750D02*
X22225000Y-145256250D01*
X24258729Y-141635021D02*
X22225000Y-143668750D01*
X25400000Y-136078326D02*
X24258729Y-137219597D01*
X25400000Y-135991102D02*
X25400000Y-136078326D01*
X25406250Y-135984852D02*
X25400000Y-135991102D01*
X24258729Y-137219597D02*
X24258729Y-141635021D01*
X25406250Y-135081250D02*
X25406250Y-135984852D01*
%TO.N,Net-(D2-Pad2)*%
X45782500Y-144145000D02*
X49212500Y-147575000D01*
X43815000Y-144145000D02*
X45782500Y-144145000D01*
%TO.N,Net-(D3-Pad2)*%
X64832500Y-144145000D02*
X68262500Y-147575000D01*
X62865000Y-144145000D02*
X64832500Y-144145000D01*
%TO.N,Net-(D4-Pad2)*%
X24765000Y-163195000D02*
X26732500Y-163195000D01*
%TO.N,VCC*%
X45662500Y-113197754D02*
X45662500Y-111918750D01*
X47435506Y-114970760D02*
X45662500Y-113197754D01*
X59170740Y-114970760D02*
X47435506Y-114970760D01*
X59518750Y-114622750D02*
X59170740Y-114970760D01*
X59518750Y-113243750D02*
X59518750Y-114622750D01*
%TO.N,COL0*%
X18256250Y-146843750D02*
X18415000Y-146685000D01*
%TO.N,COL1*%
X36830000Y-146050000D02*
X37465000Y-146685000D01*
%TO.N,Net-(R1-Pad1)*%
X59531250Y-119181250D02*
X49887500Y-119181250D01*
X49887500Y-119181250D02*
X46156250Y-119181250D01*
X50006250Y-119181250D02*
X49887500Y-119181250D01*
%TO.N,Net-(R2-Pad1)*%
X61022990Y-120070760D02*
X51014510Y-120070760D01*
X51014510Y-120070760D02*
X45458260Y-120070760D01*
X51497990Y-120070760D02*
X51014510Y-120070760D01*
%TO.N,Net-(R4-Pad2)*%
X19962500Y-135725000D02*
X20606250Y-135081250D01*
X19962500Y-138112500D02*
X19962500Y-135725000D01*
%TO.N,COL1*%
X24762739Y-138766228D02*
X25696511Y-139700000D01*
X24762739Y-137428363D02*
X24762739Y-138766228D01*
X26206250Y-135984852D02*
X24762739Y-137428363D01*
X26206250Y-135081250D02*
X26206250Y-135984852D01*
X25696511Y-139700000D02*
X26274724Y-139700000D01*
X26274724Y-139700000D02*
X26987500Y-140412776D01*
X26987500Y-140412776D02*
X33256526Y-140412776D01*
X33256526Y-140412776D02*
X37306250Y-144462500D01*
D20*
%TO.N,GND*%
X62158803Y-120672769D02*
X62443911Y-120387661D01*
X52410269Y-120672769D02*
X62158803Y-120672769D01*
X62443911Y-120387661D02*
X62158802Y-120672770D01*
X63087510Y-119744062D02*
X62443911Y-120387661D01*
X52633802Y-120672770D02*
X52410269Y-120672769D01*
X52410269Y-120672769D02*
X45208899Y-120672769D01*
D19*
%TO.N,ROW1*%
X23018750Y-154781250D02*
X23018750Y-155575000D01*
X23754719Y-136936781D02*
X24606250Y-136085250D01*
X23754719Y-141426255D02*
X23754719Y-136936781D01*
X21431250Y-143749724D02*
X23754719Y-141426255D01*
X21431250Y-146509816D02*
X21431250Y-143749724D01*
X24606250Y-136085250D02*
X24606250Y-135081250D01*
X19843750Y-148097316D02*
X21431250Y-146509816D01*
X21086967Y-151595901D02*
X19843750Y-150352684D01*
X21420901Y-151595901D02*
X21086967Y-151595901D01*
X19843750Y-150352684D02*
X19843750Y-148097316D01*
X23018750Y-153193750D02*
X21420901Y-151595901D01*
X23018750Y-155575000D02*
X23018750Y-153193750D01*
X26193750Y-169862500D02*
X30100000Y-169862500D01*
X30100000Y-169862500D02*
X30162500Y-169925000D01*
X25400000Y-169068750D02*
X26193750Y-169862500D01*
X25400000Y-167941066D02*
X25400000Y-169068750D01*
X23018750Y-165559816D02*
X25400000Y-167941066D01*
X23018750Y-155575000D02*
X23018750Y-165559816D01*
%TO.N,COL0*%
X18256250Y-146526250D02*
X18415000Y-146685000D01*
X18256250Y-141417978D02*
X18256250Y-146526250D01*
X21406250Y-138267978D02*
X18256250Y-141417978D01*
X21406250Y-135081250D02*
X21406250Y-138267978D01*
%TO.N,COL1*%
X37306250Y-146526250D02*
X37465000Y-146685000D01*
X37306250Y-144462500D02*
X37306250Y-146526250D01*
%TO.N,Net-(D6-Pad2)*%
X64832500Y-163195000D02*
X68262500Y-166625000D01*
X62865000Y-163195000D02*
X64832500Y-163195000D01*
%TO.N,Net-(D7-Pad2)*%
X26732500Y-182245000D02*
X30162500Y-185675000D01*
X24765000Y-182245000D02*
X26732500Y-182245000D01*
%TO.N,ROW2*%
X49933401Y-189695901D02*
X49212500Y-188975000D01*
X68262500Y-189679000D02*
X68245599Y-189695901D01*
X30883401Y-189695901D02*
X30162500Y-188975000D01*
X48491599Y-189695901D02*
X30883401Y-189695901D01*
X49212500Y-188975000D02*
X48491599Y-189695901D01*
X68262500Y-188975000D02*
X68262500Y-189679000D01*
X68245599Y-189695901D02*
X49933401Y-189695901D01*
X30100000Y-188912500D02*
X30162500Y-188975000D01*
X26987500Y-188912500D02*
X30100000Y-188912500D01*
X25400000Y-187325000D02*
X26987500Y-188912500D01*
X23806250Y-135081250D02*
X23806250Y-136085250D01*
X20637500Y-143830698D02*
X20637500Y-146590790D01*
X23806250Y-136085250D02*
X21910260Y-137981240D01*
X21910260Y-137981240D02*
X21910260Y-142557938D01*
X21910260Y-142557938D02*
X20637500Y-143830698D01*
X20637500Y-146590790D02*
X19339740Y-147888549D01*
X19339740Y-147888549D02*
X19339740Y-164436778D01*
X19917001Y-167355961D02*
X19050000Y-168222962D01*
X19339740Y-164436778D02*
X19917001Y-165014039D01*
X19917001Y-165014039D02*
X19917001Y-167355961D01*
X19050000Y-168222962D02*
X19050000Y-180201948D01*
X19050000Y-180201948D02*
X25400000Y-186551948D01*
X25400000Y-186551948D02*
X25400000Y-187325000D01*
%TO.N,Net-(D8-Pad2)*%
X45782500Y-182245000D02*
X49212500Y-185675000D01*
X43815000Y-182245000D02*
X45782500Y-182245000D01*
%TO.N,Net-(D9-Pad2)*%
X64832500Y-182245000D02*
X68262500Y-185675000D01*
X62865000Y-182245000D02*
X64832500Y-182245000D01*
%TO.N,COL2*%
X56197500Y-165735000D02*
X56515000Y-165735000D01*
X56356250Y-143668750D02*
X56356250Y-146526250D01*
X52387500Y-139700000D02*
X56356250Y-143668750D01*
X26987500Y-139700000D02*
X52387500Y-139700000D01*
X26327001Y-139039501D02*
X26987500Y-139700000D01*
X25748789Y-139039501D02*
X26327001Y-139039501D01*
X56356250Y-146526250D02*
X56515000Y-146685000D01*
X25266749Y-137667539D02*
X25266749Y-138557461D01*
X25885476Y-137048812D02*
X25266749Y-137667539D01*
X25266749Y-138557461D02*
X25748789Y-139039501D01*
X27006250Y-137048812D02*
X25885476Y-137048812D01*
X27006250Y-135081250D02*
X27006250Y-137048812D01*
%TD*%
M02*
