%TF.GenerationSoftware,KiCad,Pcbnew,(5.1.9)-1*%
%TF.CreationDate,2021-02-16T20:32:59-07:00*%
%TF.ProjectId,keyboard_design_example,6b657962-6f61-4726-945f-64657369676e,rev?*%
%TF.SameCoordinates,Original*%
%TF.FileFunction,Copper,L1,Top*%
%TF.FilePolarity,Positive*%
%FSLAX46Y46*%
G04 Gerber Fmt 4.6, Leading zero omitted, Abs format (unit mm)*
G04 Created by KiCad (PCBNEW (5.1.9)-1) date 2021-02-16 20:32:59*
%MOMM*%
%LPD*%
G01*
G04 APERTURE LIST*
%TA.AperFunction,ComponentPad*%
%ADD10C,2.250000*%
%TD*%
%TA.AperFunction,ComponentPad*%
%ADD11O,1.700000X2.700000*%
%TD*%
%TA.AperFunction,SMDPad,CuDef*%
%ADD12R,1.800000X1.100000*%
%TD*%
%TA.AperFunction,ViaPad*%
%ADD13C,1.000000*%
%TD*%
%TA.AperFunction,Conductor*%
%ADD14C,0.350000*%
%TD*%
%TA.AperFunction,Conductor*%
%ADD15C,0.254000*%
%TD*%
G04 APERTURE END LIST*
D10*
%TO.P,MX4,2*%
%TO.N,Net-(D4-Pad2)*%
X24765000Y-163195000D03*
%TO.P,MX4,1*%
%TO.N,COL0*%
X18415000Y-165735000D03*
%TD*%
%TO.P,MX1,2*%
%TO.N,Net-(D1-Pad2)*%
X24765000Y-144145000D03*
%TO.P,MX1,1*%
%TO.N,COL0*%
X18415000Y-146685000D03*
%TD*%
%TO.P,MX6,2*%
%TO.N,Net-(D6-Pad2)*%
X62865000Y-163195000D03*
%TO.P,MX6,1*%
%TO.N,COL2*%
X56515000Y-165735000D03*
%TD*%
%TO.P,MX9,2*%
%TO.N,Net-(D9-Pad2)*%
X62865000Y-182245000D03*
%TO.P,MX9,1*%
%TO.N,COL2*%
X56515000Y-184785000D03*
%TD*%
%TO.P,MX2,2*%
%TO.N,Net-(D2-Pad2)*%
X43815000Y-144145000D03*
%TO.P,MX2,1*%
%TO.N,COL1*%
X37465000Y-146685000D03*
%TD*%
%TO.P,MX5,2*%
%TO.N,Net-(D5-Pad2)*%
X43815000Y-163195000D03*
%TO.P,MX5,1*%
%TO.N,COL1*%
X37465000Y-165735000D03*
%TD*%
%TO.P,MX8,2*%
%TO.N,Net-(D8-Pad2)*%
X43815000Y-182245000D03*
%TO.P,MX8,1*%
%TO.N,COL1*%
X37465000Y-184785000D03*
%TD*%
%TO.P,MX7,2*%
%TO.N,Net-(D7-Pad2)*%
X24765000Y-182245000D03*
%TO.P,MX7,1*%
%TO.N,COL0*%
X18415000Y-184785000D03*
%TD*%
%TO.P,MX3,2*%
%TO.N,Net-(D3-Pad2)*%
X62865000Y-144145000D03*
%TO.P,MX3,1*%
%TO.N,COL2*%
X56515000Y-146685000D03*
%TD*%
D11*
%TO.P,USB1,6*%
%TO.N,Net-(USB1-Pad6)*%
X57468750Y-108743750D03*
X64768750Y-108743750D03*
X64768750Y-113243750D03*
X57468750Y-113243750D03*
%TD*%
D12*
%TO.P,SW1,4*%
%TO.N,N/C*%
X22943750Y-109275000D03*
%TO.P,SW1,3*%
X16743750Y-112975000D03*
%TO.P,SW1,2*%
%TO.N,Net-(R3-Pad2)*%
X22943750Y-112975000D03*
%TO.P,SW1,1*%
%TO.N,GND*%
X16743750Y-109275000D03*
%TD*%
D13*
%TO.N,+5V*%
X34131250Y-118268750D03*
X15875000Y-136525000D03*
X26193750Y-138112500D03*
X25400000Y-121443750D03*
X21431250Y-121443750D03*
%TO.N,GND*%
X18256250Y-116681250D03*
%TO.N,Net-(R3-Pad2)*%
X32543750Y-114300000D03*
%TD*%
D14*
%TO.N,+5V*%
X34131250Y-118268750D02*
X31750000Y-118268750D01*
X31750000Y-118268750D02*
X30956250Y-119062500D01*
X30956250Y-119062500D02*
X30956250Y-121443750D01*
X30956250Y-121443750D02*
X25400000Y-121443750D01*
X25400000Y-121443750D02*
X21431250Y-121443750D01*
X22225000Y-138112500D02*
X25400000Y-138112500D01*
X20637500Y-136525000D02*
X22225000Y-138112500D01*
X15875000Y-136525000D02*
X20637500Y-136525000D01*
X13493750Y-135731250D02*
X14287500Y-136525000D01*
X13493750Y-127793750D02*
X13493750Y-135731250D01*
X19843750Y-121443750D02*
X13493750Y-127793750D01*
X14287500Y-136525000D02*
X15875000Y-136525000D01*
X21431250Y-121443750D02*
X19843750Y-121443750D01*
X25400000Y-138112500D02*
X26193750Y-138112500D01*
D15*
%TO.N,COL0*%
X18415000Y-184785000D02*
X18415000Y-165735000D01*
X18415000Y-146685000D02*
X18415000Y-165735000D01*
%TO.N,COL1*%
X37465000Y-146685000D02*
X37465000Y-165735000D01*
X37465000Y-165735000D02*
X37465000Y-184785000D01*
%TO.N,Net-(R3-Pad2)*%
X31218750Y-112975000D02*
X32543750Y-114300000D01*
X22943750Y-112975000D02*
X31218750Y-112975000D01*
D14*
%TO.N,GND*%
X16137500Y-109275000D02*
X16743750Y-109275000D01*
X14287500Y-111125000D02*
X16137500Y-109275000D01*
X14287500Y-114300000D02*
X14287500Y-111125000D01*
X16668750Y-116681250D02*
X14287500Y-114300000D01*
X18256250Y-116681250D02*
X16668750Y-116681250D01*
D15*
%TO.N,COL2*%
X56515000Y-146685000D02*
X56515000Y-165735000D01*
X56515000Y-165735000D02*
X56515000Y-184785000D01*
%TD*%
M02*
