%TF.GenerationSoftware,KiCad,Pcbnew,(5.1.9)-1*%
%TF.CreationDate,2021-02-17T22:55:24-07:00*%
%TF.ProjectId,keyboard_design_example,6b657962-6f61-4726-945f-64657369676e,rev?*%
%TF.SameCoordinates,Original*%
%TF.FileFunction,Legend,Top*%
%TF.FilePolarity,Positive*%
%FSLAX46Y46*%
G04 Gerber Fmt 4.6, Leading zero omitted, Abs format (unit mm)*
G04 Created by KiCad (PCBNEW (5.1.9)-1) date 2021-02-17 22:55:24*
%MOMM*%
%LPD*%
G01*
G04 APERTURE LIST*
%ADD10C,0.150000*%
%ADD11C,0.120000*%
G04 APERTURE END LIST*
D10*
X13417857Y-141057142D02*
X13417857Y-138057142D01*
X14417857Y-140200000D01*
X15417857Y-138057142D01*
X15417857Y-141057142D01*
X16560714Y-139057142D02*
X17275000Y-141057142D01*
X17989285Y-139057142D02*
X17275000Y-141057142D01*
X16989285Y-141771428D01*
X16846428Y-141914285D01*
X16560714Y-142057142D01*
X21132142Y-139057142D02*
X21703571Y-141057142D01*
X22275000Y-139628571D01*
X22846428Y-141057142D01*
X23417857Y-139057142D01*
X25846428Y-141057142D02*
X25846428Y-139485714D01*
X25703571Y-139200000D01*
X25417857Y-139057142D01*
X24846428Y-139057142D01*
X24560714Y-139200000D01*
X25846428Y-140914285D02*
X25560714Y-141057142D01*
X24846428Y-141057142D01*
X24560714Y-140914285D01*
X24417857Y-140628571D01*
X24417857Y-140342857D01*
X24560714Y-140057142D01*
X24846428Y-139914285D01*
X25560714Y-139914285D01*
X25846428Y-139771428D01*
X27703571Y-141057142D02*
X27417857Y-140914285D01*
X27275000Y-140628571D01*
X27275000Y-138057142D01*
X29275000Y-141057142D02*
X28989285Y-140914285D01*
X28846428Y-140628571D01*
X28846428Y-138057142D01*
X31560714Y-140914285D02*
X31275000Y-141057142D01*
X30703571Y-141057142D01*
X30417857Y-140914285D01*
X30275000Y-140628571D01*
X30275000Y-139485714D01*
X30417857Y-139200000D01*
X30703571Y-139057142D01*
X31275000Y-139057142D01*
X31560714Y-139200000D01*
X31703571Y-139485714D01*
X31703571Y-139771428D01*
X30275000Y-140057142D01*
X32560714Y-139057142D02*
X33703571Y-139057142D01*
X32989285Y-138057142D02*
X32989285Y-140628571D01*
X33132142Y-140914285D01*
X33417857Y-141057142D01*
X33703571Y-141057142D01*
X36989285Y-141057142D02*
X36989285Y-138057142D01*
X38275000Y-141057142D02*
X38275000Y-139485714D01*
X38132142Y-139200000D01*
X37846428Y-139057142D01*
X37417857Y-139057142D01*
X37132142Y-139200000D01*
X36989285Y-139342857D01*
X40989285Y-139057142D02*
X40989285Y-141057142D01*
X39703571Y-139057142D02*
X39703571Y-140628571D01*
X39846428Y-140914285D01*
X40132142Y-141057142D01*
X40560714Y-141057142D01*
X40846428Y-140914285D01*
X40989285Y-140771428D01*
X42417857Y-141057142D02*
X42417857Y-139057142D01*
X42417857Y-139628571D02*
X42560714Y-139342857D01*
X42703571Y-139200000D01*
X42989285Y-139057142D01*
X43274999Y-139057142D01*
X43846428Y-139057142D02*
X44989285Y-139057142D01*
X44274999Y-138057142D02*
X44274999Y-140628571D01*
X44417857Y-140914285D01*
X44703571Y-141057142D01*
X44989285Y-141057142D01*
X45846428Y-140914285D02*
X46132142Y-141057142D01*
X46703571Y-141057142D01*
X46989285Y-140914285D01*
X47132142Y-140628571D01*
X47132142Y-140485714D01*
X46989285Y-140200000D01*
X46703571Y-140057142D01*
X46275000Y-140057142D01*
X45989285Y-139914285D01*
X45846428Y-139628571D01*
X45846428Y-139485714D01*
X45989285Y-139200000D01*
X46275000Y-139057142D01*
X46703571Y-139057142D01*
X46989285Y-139200000D01*
X51132142Y-141057142D02*
X50846428Y-140914285D01*
X50703571Y-140628571D01*
X50703571Y-138057142D01*
X53417857Y-140914285D02*
X53132142Y-141057142D01*
X52560714Y-141057142D01*
X52275000Y-140914285D01*
X52132142Y-140628571D01*
X52132142Y-139485714D01*
X52275000Y-139200000D01*
X52560714Y-139057142D01*
X53132142Y-139057142D01*
X53417857Y-139200000D01*
X53560714Y-139485714D01*
X53560714Y-139771428D01*
X52132142Y-140057142D01*
X54703571Y-140914285D02*
X54989285Y-141057142D01*
X55560714Y-141057142D01*
X55846428Y-140914285D01*
X55989285Y-140628571D01*
X55989285Y-140485714D01*
X55846428Y-140200000D01*
X55560714Y-140057142D01*
X55132142Y-140057142D01*
X54846428Y-139914285D01*
X54703571Y-139628571D01*
X54703571Y-139485714D01*
X54846428Y-139200000D01*
X55132142Y-139057142D01*
X55560714Y-139057142D01*
X55846428Y-139200000D01*
X57132142Y-140914285D02*
X57417857Y-141057142D01*
X57989285Y-141057142D01*
X58275000Y-140914285D01*
X58417857Y-140628571D01*
X58417857Y-140485714D01*
X58275000Y-140200000D01*
X57989285Y-140057142D01*
X57560714Y-140057142D01*
X57275000Y-139914285D01*
X57132142Y-139628571D01*
X57132142Y-139485714D01*
X57275000Y-139200000D01*
X57560714Y-139057142D01*
X57989285Y-139057142D01*
X58275000Y-139200000D01*
X61989285Y-139057142D02*
X61989285Y-141057142D01*
X61989285Y-139342857D02*
X62132142Y-139200000D01*
X62417857Y-139057142D01*
X62846428Y-139057142D01*
X63132142Y-139200000D01*
X63274999Y-139485714D01*
X63274999Y-141057142D01*
X65132142Y-141057142D02*
X64846428Y-140914285D01*
X64703571Y-140771428D01*
X64560714Y-140485714D01*
X64560714Y-139628571D01*
X64703571Y-139342857D01*
X64846428Y-139200000D01*
X65132142Y-139057142D01*
X65560714Y-139057142D01*
X65846428Y-139200000D01*
X65989285Y-139342857D01*
X66132142Y-139628571D01*
X66132142Y-140485714D01*
X65989285Y-140771428D01*
X65846428Y-140914285D01*
X65560714Y-141057142D01*
X65132142Y-141057142D01*
X67132142Y-139057142D02*
X67703571Y-141057142D01*
X68275000Y-139628571D01*
X68846428Y-141057142D01*
X69417857Y-139057142D01*
D11*
X34925000Y-123031250D02*
X24606250Y-134937500D01*
X34925000Y-123031250D02*
X45243750Y-123031250D01*
X45243750Y-111125000D02*
X34925000Y-123031250D01*
X45243750Y-134937500D02*
X45243750Y-111125000D01*
X46037500Y-123031250D02*
X55562500Y-123031250D01*
X55562500Y-111125000D02*
X46037500Y-123031250D01*
X55562500Y-111125000D02*
X55562500Y-134937500D01*
D10*
X27909821Y-108402380D02*
X27909821Y-107402380D01*
X28147916Y-107402380D01*
X28290773Y-107450000D01*
X28386011Y-107545238D01*
X28433630Y-107640476D01*
X28481249Y-107830952D01*
X28481249Y-107973809D01*
X28433630Y-108164285D01*
X28386011Y-108259523D01*
X28290773Y-108354761D01*
X28147916Y-108402380D01*
X27909821Y-108402380D01*
X29290773Y-108354761D02*
X29195535Y-108402380D01*
X29005059Y-108402380D01*
X28909821Y-108354761D01*
X28862202Y-108259523D01*
X28862202Y-107878571D01*
X28909821Y-107783333D01*
X29005059Y-107735714D01*
X29195535Y-107735714D01*
X29290773Y-107783333D01*
X29338392Y-107878571D01*
X29338392Y-107973809D01*
X28862202Y-108069047D01*
X29719345Y-108354761D02*
X29814583Y-108402380D01*
X30005059Y-108402380D01*
X30100297Y-108354761D01*
X30147916Y-108259523D01*
X30147916Y-108211904D01*
X30100297Y-108116666D01*
X30005059Y-108069047D01*
X29862202Y-108069047D01*
X29766964Y-108021428D01*
X29719345Y-107926190D01*
X29719345Y-107878571D01*
X29766964Y-107783333D01*
X29862202Y-107735714D01*
X30005059Y-107735714D01*
X30100297Y-107783333D01*
X30576488Y-108402380D02*
X30576488Y-107735714D01*
X30576488Y-107402380D02*
X30528869Y-107450000D01*
X30576488Y-107497619D01*
X30624107Y-107450000D01*
X30576488Y-107402380D01*
X30576488Y-107497619D01*
X31481249Y-107735714D02*
X31481249Y-108545238D01*
X31433630Y-108640476D01*
X31386011Y-108688095D01*
X31290773Y-108735714D01*
X31147916Y-108735714D01*
X31052678Y-108688095D01*
X31481249Y-108354761D02*
X31386011Y-108402380D01*
X31195535Y-108402380D01*
X31100297Y-108354761D01*
X31052678Y-108307142D01*
X31005059Y-108211904D01*
X31005059Y-107926190D01*
X31052678Y-107830952D01*
X31100297Y-107783333D01*
X31195535Y-107735714D01*
X31386011Y-107735714D01*
X31481249Y-107783333D01*
X31957440Y-107735714D02*
X31957440Y-108402380D01*
X31957440Y-107830952D02*
X32005059Y-107783333D01*
X32100297Y-107735714D01*
X32243154Y-107735714D01*
X32338392Y-107783333D01*
X32386011Y-107878571D01*
X32386011Y-108402380D01*
X33243154Y-108354761D02*
X33147916Y-108402380D01*
X32957440Y-108402380D01*
X32862202Y-108354761D01*
X32814583Y-108259523D01*
X32814583Y-107878571D01*
X32862202Y-107783333D01*
X32957440Y-107735714D01*
X33147916Y-107735714D01*
X33243154Y-107783333D01*
X33290773Y-107878571D01*
X33290773Y-107973809D01*
X32814583Y-108069047D01*
X34147916Y-108402380D02*
X34147916Y-107402380D01*
X34147916Y-108354761D02*
X34052678Y-108402380D01*
X33862202Y-108402380D01*
X33766964Y-108354761D01*
X33719345Y-108307142D01*
X33671726Y-108211904D01*
X33671726Y-107926190D01*
X33719345Y-107830952D01*
X33766964Y-107783333D01*
X33862202Y-107735714D01*
X34052678Y-107735714D01*
X34147916Y-107783333D01*
X35386011Y-108402380D02*
X35386011Y-107402380D01*
X35386011Y-107783333D02*
X35481250Y-107735714D01*
X35671726Y-107735714D01*
X35766964Y-107783333D01*
X35814583Y-107830952D01*
X35862202Y-107926190D01*
X35862202Y-108211904D01*
X35814583Y-108307142D01*
X35766964Y-108354761D01*
X35671726Y-108402380D01*
X35481250Y-108402380D01*
X35386011Y-108354761D01*
X36195535Y-107735714D02*
X36433630Y-108402380D01*
X36671726Y-107735714D02*
X36433630Y-108402380D01*
X36338392Y-108640476D01*
X36290773Y-108688095D01*
X36195535Y-108735714D01*
X37766964Y-108116666D02*
X38243154Y-108116666D01*
X37671726Y-108402380D02*
X38005059Y-107402380D01*
X38338392Y-108402380D01*
X38814583Y-108402380D02*
X38719345Y-108354761D01*
X38671726Y-108259523D01*
X38671726Y-107402380D01*
X39052678Y-107735714D02*
X39433630Y-107735714D01*
X39195535Y-107402380D02*
X39195535Y-108259523D01*
X39243154Y-108354761D01*
X39338392Y-108402380D01*
X39433630Y-108402380D01*
X40195535Y-108402380D02*
X40195535Y-107878571D01*
X40147916Y-107783333D01*
X40052678Y-107735714D01*
X39862202Y-107735714D01*
X39766964Y-107783333D01*
X40195535Y-108354761D02*
X40100297Y-108402380D01*
X39862202Y-108402380D01*
X39766964Y-108354761D01*
X39719345Y-108259523D01*
X39719345Y-108164285D01*
X39766964Y-108069047D01*
X39862202Y-108021428D01*
X40100297Y-108021428D01*
X40195535Y-107973809D01*
X41005059Y-107878571D02*
X40671726Y-107878571D01*
X40671726Y-108402380D02*
X40671726Y-107402380D01*
X41147916Y-107402380D01*
X41671726Y-108402380D02*
X41576488Y-108354761D01*
X41528869Y-108307142D01*
X41481249Y-108211904D01*
X41481249Y-107926190D01*
X41528869Y-107830952D01*
X41576488Y-107783333D01*
X41671726Y-107735714D01*
X41814583Y-107735714D01*
X41909821Y-107783333D01*
X41957440Y-107830952D01*
X42005059Y-107926190D01*
X42005059Y-108211904D01*
X41957440Y-108307142D01*
X41909821Y-108354761D01*
X41814583Y-108402380D01*
X41671726Y-108402380D01*
X42862202Y-107735714D02*
X42862202Y-108402380D01*
X42433630Y-107735714D02*
X42433630Y-108259523D01*
X42481249Y-108354761D01*
X42576488Y-108402380D01*
X42719345Y-108402380D01*
X42814583Y-108354761D01*
X42862202Y-108307142D01*
X43338392Y-108402380D02*
X43338392Y-107735714D01*
X43338392Y-107926190D02*
X43386011Y-107830952D01*
X43433630Y-107783333D01*
X43528869Y-107735714D01*
X43624107Y-107735714D01*
X44719345Y-108402380D02*
X44719345Y-107735714D01*
X44719345Y-107402380D02*
X44671726Y-107450000D01*
X44719345Y-107497619D01*
X44766964Y-107450000D01*
X44719345Y-107402380D01*
X44719345Y-107497619D01*
X45195535Y-107735714D02*
X45195535Y-108402380D01*
X45195535Y-107830952D02*
X45243154Y-107783333D01*
X45338392Y-107735714D01*
X45481250Y-107735714D01*
X45576488Y-107783333D01*
X45624107Y-107878571D01*
X45624107Y-108402380D01*
X47433630Y-108307142D02*
X47386011Y-108354761D01*
X47243154Y-108402380D01*
X47147916Y-108402380D01*
X47005059Y-108354761D01*
X46909821Y-108259523D01*
X46862202Y-108164285D01*
X46814583Y-107973809D01*
X46814583Y-107830952D01*
X46862202Y-107640476D01*
X46909821Y-107545238D01*
X47005059Y-107450000D01*
X47147916Y-107402380D01*
X47243154Y-107402380D01*
X47386011Y-107450000D01*
X47433630Y-107497619D01*
X48005059Y-108402380D02*
X47909821Y-108354761D01*
X47862202Y-108307142D01*
X47814583Y-108211904D01*
X47814583Y-107926190D01*
X47862202Y-107830952D01*
X47909821Y-107783333D01*
X48005059Y-107735714D01*
X48147916Y-107735714D01*
X48243154Y-107783333D01*
X48290773Y-107830952D01*
X48338392Y-107926190D01*
X48338392Y-108211904D01*
X48290773Y-108307142D01*
X48243154Y-108354761D01*
X48147916Y-108402380D01*
X48005059Y-108402380D01*
X48909821Y-108402380D02*
X48814583Y-108354761D01*
X48766964Y-108259523D01*
X48766964Y-107402380D01*
X49433630Y-108402380D02*
X49338392Y-108354761D01*
X49290773Y-108307142D01*
X49243154Y-108211904D01*
X49243154Y-107926190D01*
X49290773Y-107830952D01*
X49338392Y-107783333D01*
X49433630Y-107735714D01*
X49576488Y-107735714D01*
X49671726Y-107783333D01*
X49719345Y-107830952D01*
X49766964Y-107926190D01*
X49766964Y-108211904D01*
X49719345Y-108307142D01*
X49671726Y-108354761D01*
X49576488Y-108402380D01*
X49433630Y-108402380D01*
X50195535Y-108402380D02*
X50195535Y-107735714D01*
X50195535Y-107926190D02*
X50243154Y-107830952D01*
X50290773Y-107783333D01*
X50386011Y-107735714D01*
X50481249Y-107735714D01*
X51243154Y-108402380D02*
X51243154Y-107878571D01*
X51195535Y-107783333D01*
X51100297Y-107735714D01*
X50909821Y-107735714D01*
X50814583Y-107783333D01*
X51243154Y-108354761D02*
X51147916Y-108402380D01*
X50909821Y-108402380D01*
X50814583Y-108354761D01*
X50766964Y-108259523D01*
X50766964Y-108164285D01*
X50814583Y-108069047D01*
X50909821Y-108021428D01*
X51147916Y-108021428D01*
X51243154Y-107973809D01*
X52147916Y-108402380D02*
X52147916Y-107402380D01*
X52147916Y-108354761D02*
X52052678Y-108402380D01*
X51862202Y-108402380D01*
X51766964Y-108354761D01*
X51719345Y-108307142D01*
X51671726Y-108211904D01*
X51671726Y-107926190D01*
X51719345Y-107830952D01*
X51766964Y-107783333D01*
X51862202Y-107735714D01*
X52052678Y-107735714D01*
X52147916Y-107783333D01*
X52766964Y-108402380D02*
X52671726Y-108354761D01*
X52624107Y-108307142D01*
X52576488Y-108211904D01*
X52576488Y-107926190D01*
X52624107Y-107830952D01*
X52671726Y-107783333D01*
X52766964Y-107735714D01*
X52909821Y-107735714D01*
X53005059Y-107783333D01*
X53052678Y-107830952D01*
X53100297Y-107926190D01*
X53100297Y-108211904D01*
X53052678Y-108307142D01*
X53005059Y-108354761D01*
X52909821Y-108402380D01*
X52766964Y-108402380D01*
%TO.C,SW1*%
X20843750Y-111125000D02*
G75*
G03*
X20843750Y-111125000I-1000000J0D01*
G01*
X22443750Y-108525000D02*
X22443750Y-113725000D01*
X17243750Y-108525000D02*
X22443750Y-108525000D01*
X17243750Y-113725000D02*
X17243750Y-108525000D01*
X22443750Y-113725000D02*
X17243750Y-113725000D01*
X18510416Y-107465761D02*
X18653273Y-107513380D01*
X18891369Y-107513380D01*
X18986607Y-107465761D01*
X19034226Y-107418142D01*
X19081845Y-107322904D01*
X19081845Y-107227666D01*
X19034226Y-107132428D01*
X18986607Y-107084809D01*
X18891369Y-107037190D01*
X18700892Y-106989571D01*
X18605654Y-106941952D01*
X18558035Y-106894333D01*
X18510416Y-106799095D01*
X18510416Y-106703857D01*
X18558035Y-106608619D01*
X18605654Y-106561000D01*
X18700892Y-106513380D01*
X18938988Y-106513380D01*
X19081845Y-106561000D01*
X19415178Y-106513380D02*
X19653273Y-107513380D01*
X19843750Y-106799095D01*
X20034226Y-107513380D01*
X20272321Y-106513380D01*
X21177083Y-107513380D02*
X20605654Y-107513380D01*
X20891369Y-107513380D02*
X20891369Y-106513380D01*
X20796130Y-106656238D01*
X20700892Y-106751476D01*
X20605654Y-106799095D01*
%TD*%
M02*
